<?xml version="1.0" encoding="UTF-8" standalone="no"?>
<svg
   xmlns:dc="http://purl.org/dc/elements/1.1/"
   xmlns:cc="http://creativecommons.org/ns#"
   xmlns:rdf="http://www.w3.org/1999/02/22-rdf-syntax-ns#"
   xmlns:svg="http://www.w3.org/2000/svg"
   xmlns="http://www.w3.org/2000/svg"
   xmlns:sodipodi="http://sodipodi.sourceforge.net/DTD/sodipodi-0.dtd"
   xmlns:inkscape="http://www.inkscape.org/namespaces/inkscape"
   inkscape:export-ydpi="96"
   inkscape:export-xdpi="96"
   inkscape:export-filename="H:\code\alli.dev\public\favicon-512-1.png"
   width="512"
   height="512"
   viewBox="0 0 135.46667 135.46667"
   version="1.1"
   id="svg4216"
   inkscape:version="1.0 (4035a4fb49, 2020-05-01)"
   sodipodi:docname="favicon.svg">
  <defs
     id="defs4210">
    <rect
       x="81.517204"
       y="144.32555"
       width="63.075607"
       height="40.624969"
       id="rect4232" />
  </defs>
  <sodipodi:namedview
     scale-x="1"
     units="px"
     id="base"
     pagecolor="#ffffff"
     bordercolor="#666666"
     borderopacity="1.0"
     inkscape:pageopacity="0.0"
     inkscape:pageshadow="2"
     inkscape:zoom="0.7"
     inkscape:cx="385.41366"
     inkscape:cy="147.33919"
     inkscape:document-units="mm"
     inkscape:current-layer="layer1"
     inkscape:document-rotation="0"
     showgrid="false"
     inkscape:window-width="1920"
     inkscape:window-height="1017"
     inkscape:window-x="-8"
     inkscape:window-y="1349"
     inkscape:window-maximized="1" />
  <metadata
     id="metadata4213">
    <rdf:RDF>
      <cc:Work
         rdf:about="">
        <dc:format>image/svg+xml</dc:format>
        <dc:type
           rdf:resource="http://purl.org/dc/dcmitype/StillImage" />
        <dc:title></dc:title>
      </cc:Work>
    </rdf:RDF>
  </metadata>
  <g
     style="display:inline;opacity:1"
     inkscape:label="Layer 1"
     inkscape:groupmode="layer"
     id="layer1">
    <text
       transform="translate(0,-2.4054258)"
       xml:space="preserve"
       id="text4230"
       style="font-style:normal;font-variant:normal;font-weight:normal;font-stretch:normal;font-size:10.5833px;line-height:1.25;font-family:Consolas;-inkscape-font-specification:Consolas;white-space:pre;shape-inside:url(#rect4232);fill:#000000;fill-opacity:1;stroke:none;" />
    <g
       transform="translate(0,3.0238095)"
       id="g885">
      <path
         sodipodi:type="star"
         style="opacity:0.787871;fill:#f7cbcb;fill-opacity:1;stroke:none;stroke-width:0.264583"
         id="path45"
         sodipodi:sides="3"
         sodipodi:cx="25.4"
         sodipodi:cy="32.576767"
         sodipodi:r1="28.707067"
         sodipodi:r2="14.353534"
         sodipodi:arg1="0.52359878"
         sodipodi:arg2="1.5707963"
         inkscape:flatsided="true"
         inkscape:rounded="0"
         inkscape:randomized="0"
         d="m 50.261049,46.930301 -49.72209916,0 L 25.4,3.8696995 Z"
         inkscape:transform-center-y="-20.279943"
         transform="matrix(2.6799922,0,0,2.8257768,-0.33846736,-7.0652073)" />
      <g
         aria-label="A"
         id="text874"
         style="font-size:10.5833px;line-height:1.25;font-family:'Cutive Mono';-inkscape-font-specification:'Cutive Mono';stroke-width:0.264583"
         transform="matrix(8.8161395,0,0,8.694529,-164.10162,-146.82567)">
        <path
           d="m 25.31997,29.576635 q 0.124023,0 0.191202,-0.06201 0.07235,-0.06718 0.07235,-0.160197 0,-0.08785 -0.07235,-0.155028 -0.06718,-0.06718 -0.186035,-0.06718 h -0.821652 l 0.578774,-1.581293 h 2.495964 l 0.552936,1.581293 H 27.16998 q -0.118855,0 -0.186035,0.06718 -0.06718,0.06201 -0.06718,0.149861 0,0.09302 0.06718,0.160196 0.07235,0.06718 0.19637,0.06718 h 1.891352 q 0.118855,0 0.186034,-0.06718 0.07235,-0.06718 0.07235,-0.160196 0,-0.08785 -0.06718,-0.149861 -0.06201,-0.06718 -0.180867,-0.06718 H 28.673759 L 26.803078,23.86124 Q 26.684223,23.525344 26.384501,23.525344 H 24.81871 q -0.118856,0 -0.186035,0.06718 -0.06718,0.06718 -0.06718,0.155028 0,0.09302 0.06718,0.160197 0.06718,0.06201 0.191202,0.06201 h 1.121375 l -1.989536,5.162459 h -0.439248 q -0.118856,0 -0.186035,0.06718 -0.06718,0.06718 -0.06718,0.155028 0,0.09302 0.06718,0.160197 0.06718,0.06201 0.191202,0.06201 z m 1.074866,-5.539696 1.028358,3.085074 H 25.25279 Z"
           style="stroke-width:0.264583"
           id="path876" />
      </g>
    </g>
  </g>
</svg>
