<?xml version="1.0" encoding="UTF-8" standalone="no"?>
<svg
   xmlns:osb="http://www.openswatchbook.org/uri/2009/osb"
   xmlns:dc="http://purl.org/dc/elements/1.1/"
   xmlns:cc="http://creativecommons.org/ns#"
   xmlns:rdf="http://www.w3.org/1999/02/22-rdf-syntax-ns#"
   xmlns:svg="http://www.w3.org/2000/svg"
   xmlns="http://www.w3.org/2000/svg"
   xmlns:xlink="http://www.w3.org/1999/xlink"
   id="svg8"
   version="1.1"
   viewBox="0 0 210 297"
   height="297mm"
   width="210mm">
  <defs
     id="defs2">
    <linearGradient
       id="linearGradient4158">
      <stop
         id="stop4154"
         offset="0"
         style="stop-color:#f7cbcb;stop-opacity:1;" />
      <stop
         id="stop4156"
         offset="1"
         style="stop-color:#f7cbcb;stop-opacity:0;" />
    </linearGradient>
    <linearGradient
       osb:paint="gradient"
       id="linearGradient3037-8">
      <stop
         id="stop3033"
         offset="0"
         style="stop-color:#f7cbcb;stop-opacity:1;" />
      <stop
         id="stop3035"
         offset="1"
         style="stop-color:#f7cbcb;stop-opacity:0;" />
    </linearGradient>
    <linearGradient
       gradientUnits="userSpaceOnUse"
       y2="75.784225"
       x2="212.42261"
       y1="131.3248"
       x1="8.457242"
       id="linearGradient4160"
       xlink:href="#linearGradient4158" />
  </defs>
  <metadata
     id="metadata5">
    <rdf:RDF>
      <cc:Work
         rdf:about="">
        <dc:format>image/svg+xml</dc:format>
        <dc:type
           rdf:resource="http://purl.org/dc/dcmitype/StillImage" />
        <dc:title></dc:title>
      </cc:Work>
    </rdf:RDF>
  </metadata>
  <g
     id="layer1">
    <path
       id="path4144"
       d="m 176.45014,112.87205 c -1.50361,0.77156 -3.95255,2.54515 -6.93442,4.55797 -6.3959,4.30622 -13.07152,7.95077 -19.48897,9.84206 -0.83176,-0.22375 -3.33994,0.61744 -6.69086,1.58366 -5.56631,1.58016 -11.4314,2.8415 -16.99466,2.99195 -3.72257,0.26142 -6.16828,0.36508 -7.91798,0.53478 -3.17066,0.30925 -3.70051,0.71096 -5.60347,1.1141 -1.56664,0.33189 -4.24091,0.61799 -9.87004,-0.0767 -3.289422,-0.41896 -6.230743,-0.97203 -8.723195,-1.54104 -8.513353,-1.9261 -12.922198,-4.14268 -13.569174,-5.14206 0.691126,-0.53598 -4.143833,-1.95519 -8.198129,-2.55487 -1.844828,-0.26985 -3.510201,-0.37375 -4.467663,-0.20481 -5.531423,-0.0313 -11.118876,0.4577 -16.358729,1.21853 4.243963,-0.35514 4.654697,-0.95881 -0.284627,-1.57001 -3.77451,-0.4682 -8.434108,-0.40693 -12.400058,0.37221 -3.0616,-0.4385 -6.541956,-0.44372 -7.921616,-1.06706 -0.182873,-0.0833 -0.328509,-0.17873 -0.43037,-0.28965 0.0038,-0.001 0.29593,-0.10889 0.299744,-0.11029 2.779979,-1.03862 5.782823,-2.1866 6.49276,-2.69781 0.294963,-0.2124 -0.07317,-1.10303 -5.898424,0.80711 0.405314,0.16503 2.566516,-0.78175 3.471447,-1.36772 0.371288,-0.24043 1.171718,-1.33956 -3.923024,0.47964 -0.314984,0.10032 -0.631332,0.20378 -0.948945,0.31051 -9.844466,3.2945 -15.926606,7.81767 -21.6324947,11.26225 5.1743757,-4.23865 5.0665477,-4.19274 3.5705437,-4.03609 -0.505103,0.0529 -0.996756,0.1123 -0.55336,-0.38042 0.349857,-0.38878 1.895473,-1.65374 5.157493,-3.42453 7.748494,-4.51206 10.944132,-5.65599 12.357094,-6.79125 1.075686,-0.86084 1.203928,-1.48833 2.147897,-2.20126 1.729439,-1.08916 3.103926,-3.01192 8.62608,-4.14615 1.16709,0.4951 7.232288,-0.16401 11.776693,-0.4779 3.318446,-0.23138 6.224822,-0.40827 6.868618,-0.63236 0.899315,-0.64259 1.664749,-0.84351 7.852219,0.45109 2.808398,0.5482 5.39262,1.12012 8.504055,1.79893 5.315457,1.14961 10.318053,2.16763 12.868502,1.92178 1.759399,-0.11551 6.269863,0.57117 9.815354,0.95495 2.936529,0.31237 5.289959,0.43852 5.230019,-0.0287 2.00272,0.76779 3.61071,1.54744 5.93837,2.29676 2.17427,0.69994 5.53072,1.5284 10.19695,1.7917 0.44679,0.0252 0.90958,0.0455 1.38767,0.0598 5.86371,-0.14931 6.17784,-0.0754 9.83244,-0.0244 2.30479,0.0322 5.07338,0.003 8.82328,-1.10908 0.3917,-0.0891 0.7845,-0.18391 1.17804,-0.28446 7.27903,-1.82293 13.71299,-5.34345 18.23269,-8.83321 0.36857,0.006 -0.33087,0.84926 -0.43576,1.1344 -0.1049,0.28513 0.45744,0.0752 3.14444,-2.27369 0.14804,-0.22243 0.30175,-0.44785 0.46228,-0.66755 0.7149,-0.97283 1.56697,-1.84348 2.77439,-1.97022 0.0884,0.47073 -0.82956,1.70348 -1.99289,3.03521 -1.21361,1.39442 -2.70625,2.87516 -3.39831,3.81295 -0.65999,0.89433 -0.59493,1.4068 1.52356,0.60095 0.64571,0.0352 2.09328,-0.47427 4.00422,-1.51197 4.28943,-2.32875 9.96185,-6.73404 15.23469,-13.020093 2.47493,-2.880113 6.56273,-7.510124 7.98183,-8.959527 1.35746,-1.386447 2.60379,-2.104597 -1.15551,3.071024 -4.89879,6.689428 -4.72035,7.517687 -0.95638,4.46024 0.61068,0.11146 -1.41559,3.038502 -4.08672,6.203646 -2.66545,3.15841 -6.01586,6.47068 -7.28275,7.89693 0.81289,-0.22004 3.83383,-1.85088 5.04267,-2.06968 0.69138,-0.12514 1.23412,1.0423 -6.06327,6.638"
       style="fill:url(#linearGradient4160);stroke:none;stroke-width:0.264583px;stroke-linecap:butt;stroke-linejoin:miter;stroke-opacity:1;fill-opacity:1" />
  </g>
</svg>
